<svg width="176" height="176" viewBox="0 0 176 176" fill="none" xmlns="http://www.w3.org/2000/svg">
<path d="M157.691 145.137L149.831 46.0976C149.341 39.7169 143.945 34.7184 137.546 34.7184H122.021V34.0206C122.021 15.2615 106.759 0 88.0003 0C69.2412 0 53.9797 15.2615 53.9797 34.0206V34.7184H38.4549C32.0557 34.7184 26.6592 39.7165 26.1707 46.0842L18.3091 145.151C17.7007 153.083 20.4521 160.98 25.8582 166.816C31.2637 172.653 38.9266 176 46.8827 176H129.119C137.074 176 144.737 172.653 150.143 166.816C155.549 160.98 158.3 153.083 157.691 145.137ZM64.2888 34.0206C64.2888 20.9461 74.9258 10.3091 88.0003 10.3091C101.075 10.3091 111.712 20.9464 111.712 34.0206V34.7184H64.2888V34.0206ZM142.579 159.811C139.067 163.603 134.287 165.691 129.118 165.691H46.8827C41.714 165.691 36.9335 163.603 33.4214 159.811C29.909 156.019 28.1926 151.093 28.5872 145.953L36.4488 46.8861C36.5286 45.8439 37.4103 45.0275 38.4553 45.0275H53.9801V57.7239C53.9801 60.5705 56.288 62.8784 59.1346 62.8784C61.9812 62.8784 64.2891 60.5705 64.2891 57.7239V45.0275H111.713V57.7239C111.713 60.5705 114.02 62.8784 116.867 62.8784C119.714 62.8784 122.022 60.5705 122.022 57.7239V45.0275H137.546C138.591 45.0275 139.472 45.8439 139.554 46.8995L147.413 145.939C147.808 151.093 146.091 156.019 142.579 159.811Z" fill="#F0F0F0"/>
<path d="M88.0004 82.3372C75.306 82.3372 64.9784 92.6648 64.9784 105.359C64.9784 118.054 75.306 128.382 88.0004 128.382C100.695 128.382 111.023 118.054 111.023 105.359C111.023 92.6648 100.694 82.3372 88.0004 82.3372ZM88.0004 118.072C80.9906 118.072 75.2875 112.37 75.2875 105.359C75.2875 98.3487 80.9906 92.6459 88.0004 92.6459C95.0101 92.6459 100.714 98.3487 100.714 105.359C100.714 112.37 95.0101 118.072 88.0004 118.072Z" fill="#F0F0F0"/>
</svg>
