<svg width="26" height="26" viewBox="0 0 26 26" fill="none" xmlns="http://www.w3.org/2000/svg">
<g clip-path="url(#clip0)">
<path d="M6.5249 20.966C7.4705 21.9966 8.81984 22.5916 10.217 22.5916H21.7395C24.0876 22.5916 26 20.6792 26 18.3311V7.6692C26 5.32114 24.0876 3.40869 21.7395 3.40869H10.217C8.81453 3.40869 7.4705 3.99836 6.5249 5.03427L0.585687 11.4994C-0.195229 12.3547 -0.195229 13.6403 0.585687 14.4956L6.5249 20.966ZM1.54722 12.3813L7.48644 5.91081C8.18767 5.14583 9.18639 4.71022 10.2223 4.71022H21.7448C23.3757 4.71022 24.7038 6.03831 24.7038 7.6692V18.3258C24.7038 19.9567 23.3757 21.2848 21.7448 21.2848H10.217C9.18108 21.2848 8.18236 20.8492 7.48113 20.0842L1.54722 13.6137C1.22317 13.2631 1.22317 12.7319 1.54722 12.3813Z" fill="#D5D5D5"/>
<path d="M11.9754 16.4561C12.1029 16.5836 12.2676 16.6473 12.4376 16.6473C12.6076 16.6473 12.7723 16.5836 12.8998 16.4561L15.4391 13.9168L17.9784 16.4561C18.1059 16.5836 18.2706 16.6473 18.4406 16.6473C18.6105 16.6473 18.7752 16.5836 18.9027 16.4561C19.1577 16.2011 19.1577 15.792 18.9027 15.537L16.3581 12.9977L18.8974 10.4584C19.1524 10.2034 19.1524 9.79438 18.8974 9.53939C18.6424 9.2844 18.2334 9.2844 17.9784 9.53939L15.4391 12.0787L12.8998 9.53939C12.6448 9.2844 12.2357 9.2844 11.9807 9.53939C11.7257 9.79438 11.7257 10.2034 11.9807 10.4584L14.52 12.9977L11.9807 15.537C11.7257 15.792 11.7257 16.201 11.9754 16.4561Z" fill="#D5D5D5"/>
</g>
<defs>
<clipPath id="clip0">
<rect width="26" height="26" fill="white"/>
</clipPath>
</defs>
</svg>
